<?xml version="1.0" standalone="no"?><!DOCTYPE svg PUBLIC "-//W3C//DTD SVG 1.1//EN" "http://www.w3.org/Graphics/SVG/1.1/DTD/svg11.dtd"><svg t="1620913252140" class="icon" viewBox="0 0 1024 1024" version="1.1" xmlns="http://www.w3.org/2000/svg" p-id="11455" xmlns:xlink="http://www.w3.org/1999/xlink" width="200" height="200"><defs><style type="text/css"></style></defs><path d="M328.989162 299.395582c15.432892 12.856554 36.018459 20.585567 54.01512 18.009229 20.585567 0 38.582229-10.292784 54.01512-23.149337 18.009229-15.432892 30.865783-36.005891 41.158567-59.155229 17.996662-43.722337 17.996662-97.737457 2.576338-144.036131-10.292784-30.865783-28.302013-59.155228-54.015121-77.164458-15.432892-10.292784-38.582229-15.432892-59.155228-12.856553-12.856554 2.576338-25.725675 7.716446-38.582229 15.432891-23.149337 15.432892-38.582229 41.158567-48.875012 66.871674-12.856554 46.298675-15.432892 92.597349-2.576338 138.896024 10.292784 28.289445 25.725675 56.578891 51.438783 77.15189z m257.219047 2.576337c18.009229 15.432892 41.158567 25.725675 64.307904 25.725676 20.573 2.576338 38.582229-2.576338 56.591458-12.856554 17.996662-10.292784 33.442121-25.725675 43.722337-43.722337 12.856554-20.585567 23.149337-41.158567 30.865783-64.307904 5.140108-18.009229 7.716446-38.582229 5.140108-59.155228-2.576338-28.302013-15.432892-54.01512-33.429553-77.164458-12.856554-15.432892-28.302013-30.865783-46.298675-38.582228-12.856554-5.140108-28.302013-10.292784-41.158566-7.716446-17.996662 2.576338-33.442121 12.856554-46.298675 23.149337-18.009229 15.432892-33.442121 33.442121-43.722337 54.01512-10.292784 17.996662-20.585567 38.582229-23.149337 61.731566-2.576338 25.713108-2.576338 51.438783 2.576338 74.58812 5.140108 23.13677 12.856554 46.286107 30.853215 64.295336zM228.675367 512.892293c18.009229-15.432892 28.289445-36.005891 36.018458-56.591458 10.280216-33.442121 10.280216-66.871674 7.716446-100.313795 0-12.856554-5.140108-25.713108-10.292783-38.582229-12.856554-28.302013-36.005891-54.01512-64.295337-69.448012-23.149337-10.292784-46.298675-15.432892-66.871674-10.292783-25.725675 2.576338-46.298675 20.585567-61.731566 41.158566-20.585567 28.289445-30.865783 64.307904-36.005891 97.737457-2.576338 20.573 0 41.158567 5.140108 61.731566 7.716446 30.865783 23.149337 59.155228 46.298675 79.728228 17.996662 15.432892 41.158567 23.149337 64.307904 23.149337 28.276878 0.012568 56.566323-7.703878 79.71566-28.276877z m740.79136-77.164458c-2.576338-20.585567-7.716446-38.582229-18.00923-56.591458-10.292784-20.573-28.289445-41.158567-48.875012-51.438782-23.149337-12.856554-51.438783-15.432892-77.164457-12.856554-12.856554 2.576338-28.302013 5.140108-41.158567 12.856554-18.009229 10.280216-30.865783 28.289445-41.158566 48.875012-10.292784 25.713108-15.432892 54.01512-15.432892 82.304565 0 25.725675 0 54.01512 7.716446 79.740796 5.140108 18.009229 15.432892 38.582229 33.442121 48.875012 17.996662 15.432892 41.158567 20.585567 64.295336 23.149337 18.009229 2.576338 38.582229 2.576338 56.591458-2.576338 18.009229-5.140108 36.018459-15.432892 46.298674-30.865783 12.869121-15.432892 20.585567-36.005891 23.149338-54.01512 12.881689-30.865783 10.305351-59.167796 10.305351-87.457241z m-72.02435 388.398625c-2.576338-36.018459-20.573-72.02435-46.298674-100.313794-5.140108-5.140108-10.292784-10.292784-18.00923-15.432892-33.429553-28.302013-66.871674-59.155228-100.313794-90.021011-33.442121-33.442121-64.307904-69.448012-92.597349-108.030241-20.585567-33.442121-48.875012-64.307904-87.457241-82.304565-23.149337-10.292784-51.438783-15.432892-77.164458-12.856554-46.298675 5.140108-87.457241 30.865783-115.746686 66.884242-7.716446 7.716446-12.856554 18.009229-18.00923 28.289445-20.585567 30.865783-46.298675 61.731566-74.600687 87.457241-15.432892 15.432892-30.865783 28.289445-46.298674 41.158566-7.716446 7.716446-18.009229 15.432892-25.713108 23.149338C164.367463 685.217869 133.514248 716.09622 115.505018 749.525773c-12.869121 23.149337-20.585567 48.875012-23.149337 77.164458 0 23.149337 2.56377 46.298675 10.280216 66.871674 7.716446 23.149337 18.009229 46.298675 33.442121 64.307904 25.713108 30.865783 64.307904 51.438783 102.890132 54.01512 48.875012 2.576338 97.737457 0 144.036132-7.716446 20.585567-2.576338 41.158567-10.292784 64.307904-12.856554 46.298675-5.140108 92.597349-2.576338 136.332253 10.292784 36.005891 12.856554 74.58812 18.009229 113.170349 20.572999 38.582229 2.576338 79.740795-2.576338 115.746686-23.149337 25.725675-12.856554 46.298675-36.018459 59.155228-61.731566 20.585567-33.442121 30.878351-72.011782 25.725675-113.170349z m-432.120962 105.453903H346.998391c-12.856554 0-25.725675 0-38.582229-2.576337-25.725675-5.140108-48.875012-20.573-64.307904-43.722337-12.856554-15.432892-20.585567-33.442121-23.149337-54.015121a247.491802 247.491802 0 0 1 0-61.731566c5.140108-23.149337 18.009229-43.722337 33.442121-59.155228 12.856554-12.856554 30.865783-23.149337 48.875012-30.865783 7.716446-2.576338 15.432892-5.140108 23.149337-5.140108h69.448012v-97.750024h66.871674c2.576338 120.886794 2.576338 239.209818 2.576338 354.956504z m264.935493 0H568.211548c-18.009229-2.576338-33.442121-7.716446-46.298675-18.009229-15.432892-12.869121-23.149337-33.442121-23.149337-51.438783V685.217869h66.871674v162.045361c0 7.716446 2.576338 12.856554 7.716446 18.009229 5.140108 5.140108 12.856554 7.716446 20.585567 7.716446h69.448011V682.654099h66.871674v246.926264z m0 0" fill="#306CFF" p-id="11456"></path><path d="M323.849054 739.245557c-12.856554 5.140108-25.725675 15.432892-33.442121 30.865783-5.140108 12.856554-7.716446 25.725675-7.716446 38.582229 0 15.432892 5.140108 30.865783 12.856554 43.722337 10.292784 15.432892 28.289445 25.725675 46.298674 23.149337h54.015121V736.669219h-59.155229c-2.56377-2.576338-7.716446 0-12.856553 2.576338z m0 0" fill="#306CFF" p-id="11457"></path></svg>