<?xml version="1.0" standalone="no"?><!DOCTYPE svg PUBLIC "-//W3C//DTD SVG 1.1//EN" "http://www.w3.org/Graphics/SVG/1.1/DTD/svg11.dtd"><svg t="1620913373547" class="icon" viewBox="0 0 1024 1024" version="1.1" xmlns="http://www.w3.org/2000/svg" p-id="18341" xmlns:xlink="http://www.w3.org/1999/xlink" width="200" height="200"><defs><style type="text/css"></style></defs><path d="M707.323648 904.820827c65.862175-7.840735 100.361409-20.385911 127.019909-68.998469 75.271057-136.42879-6.272588-224.245023-25.090353-159.950995-12.545176 47.04441 18.817764 158.382848-54.885145 186.609495-7.840735 3.136294-32.931087 7.840735-40.771823 1.568147-14.113323-7.840735 0-84.679939-86.248085-108.202144-50.180704-14.113323-114.474732-10.977029-156.814702-36.067382-37.635528-20.385911-29.794793-42.339969-39.203675-56.453292-6.272588-9.408882-64.294028-12.545176-81.543645-15.68147-79.975498-12.545176-78.407351-25.090352-116.042879-68.998469l-1.568147-1.568147-3.136294-3.136294C192.971428 594.327718 166.312929 686.848392 167.881076 744.869832c3.136294 101.929556 61.157734 141.133231 43.908116 180.336906-10.977029 25.090352-56.453292 31.36294-53.316998 64.294028 1.568147 21.954058 32.931087 42.339969 72.134762 4.704441 42.339969-42.339969 39.203675-111.338438 48.612558-180.336907 26.658499 7.840735 20.385911 37.635528 54.885145 68.998469 26.658499 23.522205 54.885145 37.635528 48.612558 73.702909-20.385911 6.272588-58.02144 6.272588-70.566616 12.545177-10.977029 4.704441-25.090352 32.931087 20.385911 43.908116 62.725881 14.113323 230.517611 12.545176 297.947933-18.817764 56.453292-26.658499 54.885145-67.430322 73.702909-90.952527z m79.975498-446.921899c10.977029-18.817764 64.294028-100.361409 51.748852-116.042879-17.249617-25.090352-159.950995 7.840735-188.177642 14.113323-34.499234-61.157734-106.633997-131.724349-166.223584-166.223583 7.840735-29.794793 40.771822-170.928025 14.113324-188.177642-17.249617-10.977029-98.793262 40.771822-116.042879 51.748851-492.398162 316.765697 87.816233 896.980092 404.581929 404.58193z" p-id="18342"></path></svg>