<?xml version="1.0" standalone="no"?><!DOCTYPE svg PUBLIC "-//W3C//DTD SVG 1.1//EN" "http://www.w3.org/Graphics/SVG/1.1/DTD/svg11.dtd"><svg t="1620913138856" class="icon" viewBox="0 0 1024 1024" version="1.1" xmlns="http://www.w3.org/2000/svg" p-id="8019" xmlns:xlink="http://www.w3.org/1999/xlink" width="200" height="200"><defs><style type="text/css"></style></defs><path d="M148.863564 404.053034c-5.11495 15.343849 0 20.458799 0 76.719247 0 15.343849-61.375398 76.719247-86.949147 143.208595-25.571749 66.489347-25.571749 138.094645 10.2299 163.668394 35.802649 30.686699 71.604297-92.064096 76.719247-71.605298 0 5.11495 5.11395 15.343849 5.11395 25.572749 15.343849 35.802649 35.802649 71.604297 61.375397 102.291996 5.11495 5.11495-35.801649 20.458799-61.375397 61.375398-25.572749 40.916598 10.2299 117.635845 132.979695 117.635846 158.553444 0 199.470042-56.260448 199.470042-56.260448h51.145498c10.2299 0 86.949147 66.489347 194.355093 56.260448 184.125193-20.458799 158.552444-81.833197 143.208594-122.750796-15.343849-40.916598-66.489347-61.374398-66.489347-61.374397 46.031548-51.146498 51.145498-76.719247 66.489347-122.750796 5.11495-20.458799 51.146498 102.291996 81.834197 71.604298 15.343849-10.2299 40.916598-61.375398 15.343849-163.667394s-81.834197-127.864745-81.834197-143.208595v-76.719247c-10.2299-35.801649-30.687699-25.572749-30.687698-35.801648C859.792587 163.667394 706.354093 0 517.11495 0S174.436313 163.667394 174.436313 368.251386c0 15.343849-15.343849 5.11395-25.572749 35.801648z m0 0" fill="#1296db" p-id="8020"></path></svg>