<?xml version="1.0" standalone="no"?><!DOCTYPE svg PUBLIC "-//W3C//DTD SVG 1.1//EN" "http://www.w3.org/Graphics/SVG/1.1/DTD/svg11.dtd"><svg t="1620913231509" class="icon" viewBox="0 0 1024 1024" version="1.1" xmlns="http://www.w3.org/2000/svg" p-id="10644" xmlns:xlink="http://www.w3.org/1999/xlink" width="200" height="200"><defs><style type="text/css"></style></defs><path d="M713.6256 612.864c-12.0832-116.9408-153.1904-197.632-322.56-179.4048-98.816 10.0352-189.5424 52.4288-239.9232 112.9472-32.256 38.2976-46.3872 82.6368-42.3936 127.0784 10.0352 106.9056 129.024 181.4528 278.2208 181.4528 14.1312 0 28.2624 0 44.3392-2.048 98.816-10.0352 189.5424-52.4288 239.9232-112.9472 32.3584-38.4 46.3872-82.7392 42.3936-127.0784z" fill="#FFFFFF" p-id="10645"></path><path d="M427.3152 812.4416c-143.1552 14.1312-268.1856-50.3808-278.2208-143.1552s100.864-181.4528 244.0192-195.584c145.2032-14.1312 268.1856 50.3808 278.2208 143.1552 10.0352 94.72-98.816 181.4528-244.0192 195.584M727.7568 509.952c-12.0832-3.9936-20.1728-6.0416-14.1312-22.2208 14.1312-34.304 16.1792-64.512 0-86.7328-28.2624-40.3456-106.9056-38.2976-195.584-2.048 0 0-28.2624 12.0832-20.1728-10.0352 14.1312-44.3392 12.0832-80.6912-10.0352-100.864-48.4352-48.4352-177.4592 2.048-288.3584 110.8992-82.6368 82.6368-131.072 169.3696-131.072 244.0192 0 145.2032 185.5488 231.8336 368.9472 231.8336 237.8752 0 397.2096-137.1136 397.2096-245.9648 0-66.4576-56.4224-102.7072-106.8032-118.8864" fill="#D32F2F" p-id="10646"></path><path d="M449.536 641.024c-6.0416 10.0352-18.1248 16.1792-28.2624 12.0832-10.0352-3.9936-12.0832-16.1792-8.0896-26.2144 6.0416-10.0352 18.1248-16.1792 26.2144-10.0352 12.0832 2.048 14.1312 12.0832 10.1376 24.1664m-66.56 48.4352c-14.1312 20.1728-46.3872 30.208-70.5536 20.1728-24.1664-10.0352-30.208-34.304-16.1792-52.4288 14.1312-20.1728 44.3392-28.2624 68.5056-20.1728 26.3168 8.0896 34.304 32.256 18.2272 52.4288m58.4704-153.2928c-70.5536-18.1248-149.1968 16.1792-179.4048 76.5952-30.208 62.464-2.048 131.072 70.5536 153.1904 72.6016 24.1664 159.3344-12.0832 189.5424-78.6432 30.208-64.4096-8.0896-132.9152-80.6912-151.1424" fill="#263238" p-id="10647"></path><path d="M913.2032 431.3088a30.19776 30.19776 0 1 0 0 60.416c16.6912 0 30.208-13.5168 30.208-30.208s-13.4144-30.208-30.208-30.208z" fill="#F9A825" p-id="10648"></path><path d="M941.4656 471.6544c-3.9936 12.0832-16.1792 20.1728-28.2624 20.1728-16.1792 0-30.208-14.1312-30.208-30.208 0-3.9936 0-8.0896 2.048-12.0832 6.0416-18.1248 10.0352-38.2976 10.0352-58.4704 0-100.864-80.6912-181.4528-181.4528-181.4528-8.0896 0-18.1248 0-26.2144 2.048h-4.096c-16.1792 0-30.208-14.1312-30.208-30.208s14.1312-30.208 30.208-30.208c10.0352-2.048 20.1728-2.048 30.208-2.048 133.12 0 241.9712 108.8512 241.9712 241.9712 0.1024 28.0576-3.8912 54.272-14.0288 80.4864zM834.56 391.0656c0-66.56-54.4768-120.9344-120.9344-120.9344h-14.1312-2.048c-14.1312 2.048-26.2144 14.1312-26.2144 30.208 0 16.1792 14.1312 30.208 30.208 30.208h10.1376c34.304 0 60.5184 26.2144 60.5184 60.5184 0 6.0416-2.048 14.1312-3.9936 20.1728-2.048 3.9936-2.048 6.0416-2.048 10.0352 0 16.1792 14.1312 30.208 30.208 30.208 12.0832 0 22.2208-8.0896 28.2624-18.1248v-2.048c0-2.048 0-2.048 2.048-3.9936 6.0416-12.0832 7.9872-24.1664 7.9872-36.2496z" fill="#F9A825" p-id="10649"></path></svg>