<?xml version="1.0" standalone="no"?><!DOCTYPE svg PUBLIC "-//W3C//DTD SVG 1.1//EN" "http://www.w3.org/Graphics/SVG/1.1/DTD/svg11.dtd"><svg t="1620891026967" class="icon" viewBox="0 0 1024 1024" version="1.1" xmlns="http://www.w3.org/2000/svg" p-id="6101" xmlns:xlink="http://www.w3.org/1999/xlink" width="200" height="200"><defs><style type="text/css"></style></defs><path d="M923.80583442 87.9846959l-836.57480807 0c-44.46658884 0-80.64279642 36.17620757-80.64279642 80.64279643l0 544.15046178c0 44.46658884 36.17620757 80.64279642 80.64279642 80.64279642l532.24245876 0 206.50585419 148.77465508c7.98891314 6.78303919 17.93736975 10.24992619 28.03656113 10.24992619 5.57716527 0 11.30506533-1.05513914 16.73149579-3.31615221 16.27929291-6.78303919 26.6799539-22.45939587 26.6799539-40.09529749L897.42734865 793.42075053l26.3784843 0c44.46658884 0 80.64279642-36.17620757 80.64279644-80.64279642l0-544.15046178C1004.44863086 124.16090349 968.27242325 87.9846959 923.80583442 87.9846959zM938.12558237 712.77795411c0 7.68744355-6.63230441 14.31974943-14.31974942 14.31974943L831.10430163 727.09770354l0 66.32304847 0 0 0 70.69433981-190.8294975-137.46958973-0.60293622 0.75367104L639.67186791 727.09770354 87.23102486 727.09770354c-7.68744355 0-14.31974943-6.63230441-14.3197494-14.31974943l0-544.15046178c0-7.68744355 6.63230441-14.31974943 14.3197494-14.31974943l836.57480809 0c7.68744355 0 14.31974943 6.63230441 14.31974942 14.31974943L938.12558237 712.77795411z" p-id="6102"></path><path d="M318.60802131 390.96043796l-60.2936803 0c-8.29038125 0-15.07342044 6.78303919-15.07342043 15.07342045l0 60.2936803c0 8.29038125 6.78303919 15.07342044 15.07342043 15.07342043l60.2936803 0c8.29038125 0 15.07342044-6.78303919 15.07342045-15.07342043l0-60.2936803C333.68144176 397.74347717 326.89840255 390.96043796 318.60802131 390.96043796z" p-id="6103"></path><path d="M547.72400468 404.52651489c0-8.29038125-6.78303919-15.07342044-15.07342043-15.07342045l-60.29368031 0c-8.29038125 0-15.07342044 6.78303919-15.07342044 15.07342045l0 60.2936803c0 8.29038125 6.78303919 15.07342044 15.07342044 15.07342045l60.29368031 0c8.29038125 0 15.07342044-6.78303919 15.07342043-15.07342045L547.72400468 404.52651489z" p-id="6104"></path><path d="M764.78125317 404.52651489c0-8.29038125-6.78303919-15.07342044-15.07342046-15.07342045l-60.29368029 0c-8.29038125 0-15.07342044 6.78303919-15.07342042 15.07342045l0 60.2936803c0 8.29038125 6.78303919 15.07342044 15.07342042 15.07342045l60.29368029 0c8.29038125 0 15.07342044-6.78303919 15.07342046-15.07342045L764.78125317 404.52651489z" p-id="6105"></path></svg>