<?xml version="1.0" standalone="no"?><!DOCTYPE svg PUBLIC "-//W3C//DTD SVG 1.1//EN" "http://www.w3.org/Graphics/SVG/1.1/DTD/svg11.dtd"><svg t="1620890861325" class="icon" viewBox="0 0 1024 1024" version="1.1" xmlns="http://www.w3.org/2000/svg" p-id="4576" xmlns:xlink="http://www.w3.org/1999/xlink" width="200" height="200"><defs><style type="text/css"></style></defs><path d="M910.001 462.106c-50.55-78.534-113.946-137.263-190.178-176.188 20.315 34.624 30.472 72.06 30.472 112.306 0 61.54-21.87 114.2-65.608 157.982-43.738 43.78-96.399 65.65-157.982 65.606-61.582-0.042-114.244-21.91-157.98-65.606-43.739-43.695-65.608-96.357-65.608-157.982 0-40.246 10.158-77.682 30.471-112.306-76.19 38.925-139.583 97.655-190.178 176.188 44.25 68.226 99.719 122.548 166.414 162.964 66.693 40.416 138.985 60.624 216.88 60.624s150.187-20.208 216.88-60.624C810.28 584.654 865.752 530.332 910 462.106zM550.662 270.459c0-6.643-2.322-12.307-6.963-16.992-4.641-4.685-10.306-7.006-16.992-6.964-41.608 0-77.298 14.885-107.067 44.654-29.77 29.77-44.654 65.458-44.654 107.067 0 6.644 2.32 12.307 6.964 16.993 4.642 4.683 10.306 7.007 16.992 6.964s12.349-2.367 16.992-6.964c4.641-4.6 6.963-10.265 6.963-16.993 0-28.62 10.159-53.065 30.472-73.338s44.76-30.429 73.337-30.472c6.644 0 12.309-2.32 16.992-6.962 4.687-4.643 7.007-10.307 6.964-16.993z m423.223 191.647c0 11.328-3.322 22.805-9.966 34.43-46.591 76.532-109.216 137.838-187.878 183.919-78.661 46.08-161.75 69.12-249.271 69.12-87.518 0-170.61-23.126-249.27-69.376-78.659-46.249-141.285-107.469-187.876-183.66-6.645-11.627-9.966-23.104-9.966-34.432s3.321-22.806 9.966-34.433c46.59-76.19 109.217-137.411 187.879-183.662 78.66-46.25 161.75-69.376 249.269-69.376s170.61 23.126 249.271 69.376c78.66 46.25 141.285 107.471 187.878 183.662 6.642 11.626 9.964 23.104 9.964 34.432z" p-id="4577"></path></svg>